<svg xmlns="http://www.w3.org/2000/svg" viewBox="0 0 24 24" style="enable-background: new 0 0 24 24;" xml:space="preserve">
  <path d="M2 23c-.3 0-.5-.1-.7-.3-.4-.4-.4-1 0-1.4l20-20c.4-.4 1-.4 1.4 0s.4 1 0 1.4l-20 20c-.2.2-.4.3-.7.3zM13 8.1c-.3 0-.6-.1-1-.1-2.2 0-4 1.8-4 4 0 .4.1.7.1 1L13 8.1zM11 15.9c.3.1.7.1 1 .1 2.2 0 4-1.8 4-4 0-.4-.1-.7-.1-1L11 15.9z"/>
  <g>
    <path d="M3.5 17.7 5 16.2c-1.8-1.1-3-2.6-3-4.2 0-3.3 4.6-6 10-6 1 0 2 .1 2.9.3l1.7-1.7c-1.4-.4-3-.6-4.6-.6C5.4 4 0 7.6 0 12c0 2.2 1.3 4.2 3.5 5.7zM20.5 6.3 19 7.8c1.8 1.1 3 2.6 3 4.2 0 3.3-4.6 6-10 6-1 0-2-.1-2.9-.3l-1.7 1.7c1.4.4 3 .6 4.6.6 6.6 0 12-3.6 12-8 0-2.2-1.3-4.2-3.5-5.7z"/>
  </g>
</svg>
