<?xml version="1.0" encoding="utf-8"?>
<!-- Generator: Adobe Illustrator 24.3.0, SVG Export Plug-In . SVG Version: 6.00 Build 0)  -->
<svg version="1.1" id="Ebene_1" xmlns="http://www.w3.org/2000/svg" xmlns:xlink="http://www.w3.org/1999/xlink" x="0px" y="0px"
	 viewBox="0 0 24 24" style="enable-background:new 0 0 24 24;" xml:space="preserve">
<g>
	<path d="M2,23c-0.3,0-0.5-0.1-0.7-0.3c-0.4-0.4-0.4-1,0-1.4l20-20c0.4-0.4,1-0.4,1.4,0s0.4,1,0,1.4l-20,20C2.5,22.9,2.3,23,2,23z"
		/>
</g>
<g>
	<path d="M13,8.1C12.7,8.1,12.4,8,12,8c-2.2,0-4,1.8-4,4c0,0.4,0.1,0.7,0.1,1L13,8.1z"/>
	<path d="M11,15.9c0.3,0.1,0.7,0.1,1,0.1c2.2,0,4-1.8,4-4c0-0.4-0.1-0.7-0.1-1L11,15.9z"/>
</g>
<g>
	<path d="M3.5,17.7L5,16.2c-1.8-1.1-3-2.6-3-4.2c0-3.3,4.6-6,10-6c1,0,2,0.1,2.9,0.3l1.7-1.7C15.2,4.2,13.6,4,12,4C5.4,4,0,7.6,0,12
		C0,14.2,1.3,16.2,3.5,17.7z"/>
	<path d="M20.5,6.3L19,7.8c1.8,1.1,3,2.6,3,4.2c0,3.3-4.6,6-10,6c-1,0-2-0.1-2.9-0.3l-1.7,1.7C8.8,19.8,10.4,20,12,20
		c6.6,0,12-3.6,12-8C24,9.8,22.7,7.8,20.5,6.3z"/>
</g>
</svg>
